<?xml version="1.0" encoding="utf-8"?>
<svg viewBox="0 0 44 46" xmlns="http://www.w3.org/2000/svg" xmlns:xlink="http://www.w3.org/1999/xlink">
    <style>:root>svg{display:none}:root>svg:target{display:block}</style>
    <svg fill="none" viewBox="0 0 34 34" id="$" xmlns="http://www.w3.org/2000/svg">
        <path d="M18.412 16.209h-1.824a1.887 1.887 0 01-1.885-1.885c0-1.039.846-1.884 1.885-1.884h3.648a.852.852 0 000-1.704h-1.884V8.852a.852.852 0 00-1.704 0v1.884h-.06A3.592 3.592 0 0013 14.324a3.592 3.592 0 003.588 3.588h1.824c1.04 0 1.885.846 1.885 1.885 0 1.04-.846 1.885-1.885 1.885h-3.648a.852.852 0 000 1.703h1.884v1.885a.852.852 0 001.704 0v-1.885h.06A3.592 3.592 0 0022 19.797a3.592 3.592 0 00-3.588-3.588z"
              fill="#fff" stroke="#FF4E4E" stroke-width=".5"/>
        <circle cx="17" cy="17" r="16.5" stroke="#fff"/>
    </svg>
    <svg fill="none" viewBox="0 0 25 18" id="check" xmlns="http://www.w3.org/2000/svg">
        <mask id="ba" fill="#fff">
            <path fill-rule="evenodd" clip-rule="evenodd"
                  d="M23.553 3.61A2.115 2.115 0 0020.562.62L9.095 12.086 3.61 6.602A2.115 2.115 0 00.62 9.593l6.98 6.98a2.11 2.11 0 001.676.612c.48-.041.948-.245 1.315-.612L23.553 3.61z"/>
        </mask>
        <path d="M23.553.62l.707-.708-.707.708zm0 2.99l-.707-.706.707.707zM20.562.62l.707.707-.707-.707zM9.095 12.086l-.707.707.707.707.707-.707-.707-.707zM3.61 6.602l.707-.707-.707.707zm-2.991 0l-.708-.707.708.707zm0 2.991l-.708.707.708-.707zm6.98 6.98l-.708.707.707-.707zm1.676.612l-.085-.997.085.997zm1.315-.612l.707.707-.707-.707zM22.846 1.327a1.115 1.115 0 010 1.577l1.414 1.414a3.115 3.115 0 000-4.406l-1.414 1.415zm-1.577 0a1.115 1.115 0 011.577 0L24.26-.088a3.115 3.115 0 00-4.405 0l1.414 1.415zM9.802 12.793L21.269 1.327 19.855-.088 8.388 11.38l1.414 1.414zM2.904 7.31l5.484 5.484 1.414-1.414-5.484-5.484-1.414 1.414zm-1.577 0a1.115 1.115 0 011.577 0l1.414-1.414a3.115 3.115 0 00-4.406 0l1.415 1.414zm0 1.577a1.115 1.115 0 010-1.577L-.088 5.895a3.115 3.115 0 000 4.405l1.415-1.414zm6.98 6.98l-6.98-6.98L-.088 10.3l6.98 6.98 1.414-1.414zm.884.322a1.11 1.11 0 01-.885-.322L6.892 17.28a3.11 3.11 0 002.468.901l-.17-1.993zm.693-.322c-.195.194-.44.3-.693.322l.17 1.993a3.106 3.106 0 001.937-.901l-1.414-1.414zM22.846 2.904L9.884 15.866l1.414 1.414L24.26 4.318l-1.414-1.414z"
              fill="#fff" mask="url(#ba)"/>
    </svg>
    <svg fill="none" viewBox="0 0 28 24" id="comment" xmlns="http://www.w3.org/2000/svg">
        <path d="M22.118 1H6.448C3.444 1 1 3.458 1 6.48v8.462c0 2.41 1.574 4.51 3.854 5.182l2.632 2.647a.777.777 0 001.1 0L11 20.343h11.118c3.004 0 5.448-2.458 5.448-5.48V6.48C27.566 3.458 25.122 1 22.118 1zm3.891 13.864c0 2.158-1.745 3.913-3.891 3.913h-11.44a.776.776 0 00-.55.23L8.036 21.11 5.81 18.87a.777.777 0 00-.363-.206 3.824 3.824 0 01-2.89-3.722V6.479c0-2.158 1.746-3.914 3.892-3.914h15.67c2.146 0 3.891 1.756 3.891 3.914v8.385z"
              fill="#fff" stroke="#FF4E4E" stroke-width=".5"/>
        <path d="M19.304 7.641H9.262c-.436 0-.79.372-.79.83 0 .46.354.83.79.83h10.042c.436 0 .79-.37.79-.83 0-.458-.354-.83-.79-.83zM19.304 12H9.262c-.436 0-.79.372-.79.83 0 .459.354.83.79.83h10.042c.436 0 .79-.371.79-.83 0-.458-.354-.83-.79-.83z"
              fill="#fff" stroke="#FF4E4E" stroke-width=".5"/>
    </svg>
    <svg fill="none" viewBox="0 0 44 46" id="finish" xmlns="http://www.w3.org/2000/svg">
        <path d="M11.135 44.962l.81-.226a1.465 1.465 0 001.017-1.805L3.7 9.788a1.831 1.831 0 00-2.256-1.271l-.105.03a1.831 1.831 0 00-1.27 2.256L9.33 43.946a1.465 1.465 0 001.805 1.017zM43.75 21.801a35.09 35.09 0 01-8.072-5.553.721.721 0 01-.205-.736 103.822 103.822 0 002.663-13.791c.091-.774-.326-1.002-.766-.47C28.737 11.574 13.8-.64 4.908 8.744c.107.2.191.412.25.63l6.01 21.515c8.905-9.27 23.79 2.867 32.407-7.435.44-.53.524-1.502.175-1.654z"
              fill="#FF4E4E"/>
    </svg>
    <svg fill="none" viewBox="0 0 20 21" id="instagram_" xmlns="http://www.w3.org/2000/svg">
        <g clip-path="url(#eclip0)" fill="#fff">
            <path d="M13.259.857H6.027A6.027 6.027 0 000 6.884v7.232a6.027 6.027 0 006.027 6.027h7.232a6.027 6.027 0 006.027-6.027V6.884A6.027 6.027 0 0013.259.857zm4.219 13.259a4.223 4.223 0 01-4.22 4.219H6.028a4.223 4.223 0 01-4.219-4.22V6.885a4.223 4.223 0 014.219-4.219h7.232a4.223 4.223 0 014.219 4.219v7.232z"/>
            <path d="M9.643 5.678a4.822 4.822 0 100 9.644 4.822 4.822 0 000-9.644zm0 7.835A3.018 3.018 0 016.63 10.5a3.017 3.017 0 013.013-3.014 3.017 3.017 0 013.013 3.014 3.018 3.018 0 01-3.013 3.013zM14.826 5.96a.642.642 0 100-1.286.642.642 0 000 1.285z"/>
        </g>
        <defs>
            <clipPath id="eclip0">
                <path fill="#fff" transform="translate(0 .857)" d="M0 0h19.286v19.286H0z"/>
            </clipPath>
        </defs>
    </svg>
    <svg fill="none" viewBox="0 0 35 24" id="ipad" xmlns="http://www.w3.org/2000/svg">
        <path d="M2.68 23.184H32.26c.927 0 1.68-.755 1.68-1.681V2.681c0-.927-.753-1.681-1.68-1.681H2.68C1.754 1 1 1.754 1 2.68v18.823c0 .926.754 1.68 1.68 1.68zm0-21.512H32.26a1.01 1.01 0 011.008 1.009v18.822a1.01 1.01 0 01-1.008 1.008H2.68a1.01 1.01 0 01-1.009-1.008V2.681a1.01 1.01 0 011.009-1.009z"
              fill="#fff" stroke="#fff" stroke-width=".2"/>
        <path d="M29.234 20.83V3.352a.336.336 0 00-.336-.336H4.025a.336.336 0 00-.336.336V20.83c0 .186.15.337.336.337h24.873c.185 0 .336-.151.336-.337zm-24.873-.336V3.69h24.2v16.805h-24.2zM29.906 12.07a1.346 1.346 0 002.689 0 1.346 1.346 0 00-2.689 0zm2.017 0a.673.673 0 11-1.346 0 .673.673 0 011.346 0z"
              fill="#fff" stroke="#fff" stroke-width=".2"/>
    </svg>
    <svg fill="none" viewBox="0 0 15 26" id="play" xmlns="http://www.w3.org/2000/svg">
        <path d="M0 2.058C0 .244 2.219-.633 3.46.69l10.258 10.942a2 2 0 010 2.736L3.459 25.31C2.22 26.633 0 25.756 0 23.942V2.058z"
              fill="#E7E7E7"/>
    </svg>
    <svg fill="none" viewBox="0 0 19 16" id="telegram" xmlns="http://www.w3.org/2000/svg">
        <path d="M7.306 10.527L7 14.79c.437 0 .627-.187.854-.41l2.05-1.943 4.25 3.085c.78.43 1.329.204 1.539-.711l2.79-12.956v-.001C18.73.712 18.066.265 17.307.546L.912 6.768c-1.12.43-1.103 1.049-.19 1.329l4.191 1.292 9.736-6.039c.459-.3.875-.134.533.167l-7.876 7.01z"
              fill="#fff"/>
    </svg>
    <svg fill="none" viewBox="0 0 23 13" id="vk" xmlns="http://www.w3.org/2000/svg">
        <path d="M18.992 7.59c-.363-.421-.26-.609 0-.986C18.997 6.6 22 2.789 22.31 1.497l.002-.001c.154-.471 0-.817-.743-.817h-2.46c-.627 0-.915.297-1.07.63 0 0-1.253 2.752-3.024 4.537-.572.516-.837.681-1.149.681-.154 0-.393-.165-.393-.636V1.496c0-.565-.175-.817-.694-.817H8.91c-.393 0-.626.263-.626.509 0 .535.886.658.978 2.165v3.269c0 .716-.142.848-.456.848-.836 0-2.866-2.765-4.069-5.929C4.494.928 4.257.68 3.627.68H1.164c-.702 0-.843.297-.843.629 0 .587.836 3.507 3.888 7.364 2.035 2.633 4.9 4.06 7.506 4.06 1.567 0 1.758-.318 1.758-.863 0-2.515-.141-2.753.643-2.753.364 0 .99.165 2.453 1.435 1.671 1.506 1.946 2.18 2.882 2.18h2.46c.701 0 1.057-.317.852-.942-.468-1.314-3.629-4.019-3.771-4.2z"
              fill="#fff"/>
    </svg>
</svg>